<svg width="128" height="128" viewBox="0 0 128 128" fill="none" xmlns="http://www.w3.org/2000/svg">
<rect width="128" height="128" fill="#FFF4F4"/>
<g style="mix-blend-mode:hard-light">
<path d="M35.4167 86.3418C35.2519 86.2865 34.9497 86.3694 34.5102 86.5905C34.1257 86.8116 33.8784 87.0051 33.7686 87.1709C33.8235 87.0604 33.851 86.784 33.851 86.3418C33.851 85.8996 33.8235 85.6232 33.7686 85.5127L32.9445 83.8545L32.1204 83.0254L29.6482 79.709C29.5383 79.5431 29.3735 79.2668 29.1537 78.8799C28.934 78.4377 28.8241 78.1613 28.8241 78.0508C28.7691 77.7744 28.6867 77.3598 28.5769 76.8071C28.467 76.1991 28.3571 75.5911 28.2472 74.9831C28.1923 74.3198 28.1373 73.7394 28.0824 73.242C28.0275 72.7445 28 72.4129 28 72.247C28 72.0812 28.0275 71.8048 28.0824 71.4179C28.1373 71.031 28.1923 70.6165 28.2472 70.1743C28.3571 69.7321 28.467 69.3175 28.5769 68.9306C28.6867 68.5437 28.7691 68.2673 28.8241 68.1015L29.6482 68.9306C29.758 68.8754 29.8954 68.7648 30.0602 68.599C30.28 68.3779 30.4173 68.2121 30.4722 68.1015C30.5821 67.9357 30.7195 67.7422 30.8843 67.5211C31.0491 67.2448 31.2139 66.9684 31.3787 66.692C31.5985 66.4157 31.7633 66.1946 31.8732 66.0288C32.038 65.8077 32.1204 65.6695 32.1204 65.6142C32.1753 65.5037 32.1753 65.2273 32.1204 64.7851C32.0655 64.3429 32.0655 64.0666 32.1204 63.956C32.1204 63.9007 32.2028 63.7902 32.3676 63.6244C32.5324 63.4585 32.6972 63.2927 32.8621 63.1269C33.0818 62.9058 33.2741 62.74 33.4389 62.6294C33.6037 62.4636 33.7136 62.3531 33.7686 62.2978C33.8235 62.1873 33.9334 61.9109 34.0982 61.4687C34.3179 61.0265 34.4828 60.7501 34.5926 60.6396C34.6476 60.529 34.7025 60.5567 34.7574 60.7225C34.8673 60.8883 34.9772 60.9712 35.0871 60.9712C35.0871 60.6949 35.1145 60.1974 35.1695 59.4788C35.2244 58.705 35.2519 57.9036 35.2519 57.0745C35.3068 56.2453 35.3343 55.4715 35.3343 54.753C35.3892 53.9791 35.4167 53.454 35.4167 53.1777C35.4167 53.0671 35.3068 52.8184 35.0871 52.4315C34.8673 51.9893 34.7025 51.6853 34.5926 51.5195L33.7686 50.6904L32.9445 49.0322C32.8346 48.9769 32.5324 48.7281 32.038 48.286C31.5985 47.7885 31.3513 47.4845 31.2963 47.3739C31.2963 47.3739 31.2688 47.2358 31.2139 46.9594C31.2139 46.6277 31.2139 46.379 31.2139 46.2132C31.2139 46.0474 31.2139 45.7986 31.2139 45.467C31.2688 45.1354 31.2963 44.9419 31.2963 44.8866C31.2963 44.7761 31.4062 44.5274 31.6259 44.1404C31.8457 43.6983 32.0105 43.3942 32.1204 43.2284L32.9445 42.3993C32.9445 42.3441 32.9719 42.2059 33.0269 41.9848C33.1368 41.7084 33.2192 41.432 33.2741 41.1557C33.384 40.824 33.4664 40.5477 33.5213 40.3266C33.6312 40.1055 33.7136 39.9673 33.7686 39.912C33.8784 39.8015 34.2355 39.6633 34.8399 39.4975C35.4991 39.3316 35.9661 39.1935 36.2408 39.0829C36.2957 39.0829 36.4331 39.0829 36.6528 39.0829C36.8726 39.0276 37.0374 39 37.1473 39C37.2571 39 37.3945 39.0276 37.5593 39.0829C37.7791 39.0829 37.8889 39.0829 37.8889 39.0829C37.9439 39.0829 38.0538 39.1658 38.2186 39.3316C38.3834 39.4975 38.5482 39.6909 38.713 39.912C38.9328 40.0778 39.0976 40.2437 39.2075 40.4095C39.3723 40.5753 39.4822 40.6858 39.5371 40.7411C39.592 40.7964 39.7294 40.7964 39.9491 40.7411C40.1689 40.6858 40.3062 40.6858 40.3612 40.7411L42.8334 43.2284L44.4816 44.0575C44.5365 44.1128 44.6739 44.2786 44.8936 44.555C45.1134 44.7761 45.2507 44.8866 45.3057 44.8866C45.3606 44.8866 45.4979 44.9143 45.7177 44.9695C45.9374 44.9695 46.1023 44.9695 46.2121 44.9695C46.322 44.9695 46.4594 44.9695 46.6242 44.9695C46.8439 44.9143 46.9538 44.8866 46.9538 44.8866C47.0087 44.8314 47.1186 44.6932 47.2834 44.4721C47.4483 44.251 47.6131 44.0023 47.7779 43.7259C47.9427 43.3942 48.1075 43.1179 48.2723 42.8968C48.4371 42.6204 48.547 42.4546 48.602 42.3993C48.7118 42.2888 48.9865 42.1506 49.426 41.9848C49.8656 41.819 50.1402 41.6808 50.2501 41.5702C50.36 41.4597 50.5248 41.1833 50.7446 40.7411C50.9643 40.2989 51.0742 40.0226 51.0742 39.912C51.1841 40.0226 51.4588 40.1884 51.8983 40.4095C52.3378 40.5753 52.6125 40.6858 52.7224 40.7411C52.7224 40.7411 52.8322 40.7688 53.052 40.824C53.2717 40.824 53.4366 40.824 53.5464 40.824C53.6563 40.824 53.8211 40.824 54.0409 40.824C54.2606 40.7688 54.3705 40.7411 54.3705 40.7411C54.4804 40.6858 54.7551 40.5753 55.1946 40.4095C55.6341 40.1884 55.9088 40.0226 56.0187 39.912C55.8539 40.1884 55.8539 40.4648 56.0187 40.7411C56.0736 40.8517 56.1835 40.9898 56.3483 41.1557C56.5681 41.3215 56.7329 41.4597 56.8427 41.5702C56.9526 41.6255 57.2273 41.7637 57.6668 41.9848C58.1063 42.1506 58.381 42.2888 58.4909 42.3993C58.6008 42.5099 58.7381 42.7862 58.9029 43.2284C59.0678 43.6706 59.2051 43.947 59.315 44.0575C59.3699 44.1128 59.5073 44.1404 59.727 44.1404C59.9468 44.0852 60.0841 44.0575 60.1391 44.0575C60.2489 44.1128 60.3863 44.251 60.5511 44.4721C60.7159 44.6379 60.8533 44.7761 60.9631 44.8866L61.7872 46.5448V48.203C61.7323 48.4794 61.5949 48.9492 61.3752 49.6125C61.2104 50.2205 61.073 50.5798 60.9631 50.6904C60.9631 50.7456 60.8807 50.8562 60.7159 51.022C60.5511 51.1325 60.3588 51.2984 60.1391 51.5195C59.9193 51.6853 59.727 51.8511 59.5622 52.0169C59.3974 52.1827 59.315 52.2933 59.315 52.3486C59.2051 52.6249 59.0403 53.1777 58.8205 54.0068C58.6008 54.8359 58.4909 55.3886 58.4909 55.665L57.6668 54.8359C57.6668 54.9464 57.6394 55.1675 57.5844 55.4992C57.5844 55.7755 57.5844 55.969 57.5844 56.0795C57.5844 56.2453 57.5844 56.4941 57.5844 56.8257C57.6394 57.1021 57.6668 57.2679 57.6668 57.3232C57.6668 57.4337 57.7767 57.7101 57.9965 58.1523C58.2712 58.5945 58.436 58.8708 58.4909 58.9814V60.6396C58.4909 60.6949 58.436 60.8607 58.3261 61.1371C58.2162 61.3582 58.1063 61.6069 57.9965 61.8832C57.9415 62.1596 57.8591 62.436 57.7492 62.7124C57.6943 62.9334 57.6668 63.0716 57.6668 63.1269C57.6668 63.4033 57.6943 63.9284 57.7492 64.7022C57.8042 65.476 57.8591 66.3051 57.9141 67.1895C58.0239 68.0739 58.1338 68.9306 58.2437 69.7597C58.3536 70.5336 58.436 71.0863 58.4909 71.4179C58.5458 71.639 58.7107 72.0812 58.9854 72.7445C59.315 73.3525 59.5622 73.7394 59.727 73.9052V71.4179L61.7872 78.0508H63.1882C63.1882 78.2166 63.1607 78.493 63.1057 78.8799C63.0508 79.2668 62.9959 79.6813 62.9409 80.1235C62.886 80.5657 62.8311 80.9803 62.7761 81.3672C62.7212 81.7541 62.6662 82.0305 62.6113 82.1963C62.6113 82.2515 62.5289 82.3621 62.3641 82.5279C62.1993 82.6937 62.007 82.8872 61.7872 83.1083C61.6224 83.2741 61.4576 83.4399 61.2928 83.6058C61.128 83.7163 61.0181 83.7992 60.9631 83.8545C60.9082 83.965 60.7709 84.2414 60.5511 84.6836C60.3863 85.1258 60.2489 85.4021 60.1391 85.5127C60.0292 85.6232 59.7545 85.7891 59.315 86.0102C58.9304 86.176 58.6557 86.2865 58.4909 86.3418C58.436 86.3418 58.1887 86.3694 57.7492 86.4247C57.3647 86.4247 57.0625 86.4247 56.8427 86.4247C56.5681 86.4247 56.2384 86.4247 55.8539 86.4247C55.4693 86.3694 55.2495 86.3418 55.1946 86.3418C55.1397 86.3418 55.0023 86.2312 54.7826 86.0102C54.6177 85.7891 54.4804 85.6232 54.3705 85.5127L53.5464 83.8545C53.4915 83.7439 53.3542 83.6058 53.1344 83.4399C52.9696 83.2741 52.8322 83.1359 52.7224 83.0254L50.2501 81.3672L49.426 80.5381C49.426 80.5381 49.3711 80.5381 49.2612 80.5381C49.1514 80.4828 49.0689 80.4552 49.014 80.4552C48.9591 80.4552 48.8767 80.4828 48.7668 80.5381C48.6569 80.5381 48.602 80.5381 48.602 80.5381L45.3057 82.1963C45.2507 82.1963 45.1134 82.1963 44.8936 82.1963C44.6739 82.141 44.5365 82.141 44.4816 82.1963C44.4266 82.2515 44.3442 82.4174 44.2343 82.6937C44.1794 82.9148 44.097 83.1636 43.9871 83.4399C43.9322 83.7163 43.8772 83.9927 43.8223 84.269C43.7674 84.4901 43.7124 84.6283 43.6575 84.6836C43.5476 84.7941 43.2729 84.96 42.8334 85.181C42.4488 85.3469 42.1742 85.4574 42.0093 85.5127C41.9544 85.5127 41.7896 85.5127 41.5149 85.5127C41.2951 85.5127 41.0479 85.5127 40.7732 85.5127C40.4985 85.5127 40.2238 85.5127 39.9491 85.5127C39.7294 85.5127 39.592 85.5127 39.5371 85.5127C39.4272 85.568 39.2349 85.7061 38.9602 85.9272C38.7405 86.1483 38.4933 86.3971 38.2186 86.6734C37.9439 86.9498 37.6967 87.1985 37.4769 87.4196C37.2571 87.696 37.1198 87.8895 37.0649 88C37.0099 87.7789 36.7627 87.4749 36.3232 87.088C35.9386 86.6458 35.6365 86.3971 35.4167 86.3418ZM38.6306 70.1743C38.6306 70.3401 38.6306 70.5888 38.6306 70.9205C38.6856 71.1968 38.713 71.3627 38.713 71.4179C38.768 71.639 38.8778 72.0536 39.0427 72.6616C39.2624 73.2696 39.4272 73.6842 39.5371 73.9052C39.592 74.0158 39.7019 74.1816 39.8667 74.4027C40.0865 74.5685 40.2513 74.6791 40.3612 74.7344C40.4711 74.7896 40.7457 74.7896 41.1853 74.7344C41.6248 74.6791 41.8995 74.6791 42.0093 74.7344C42.0643 74.7344 42.2016 74.8725 42.4214 75.1489C42.6411 75.4253 42.7785 75.5635 42.8334 75.5635C42.8884 75.5635 43.0257 75.5911 43.2455 75.6464C43.4652 75.6464 43.63 75.6464 43.7399 75.6464C43.8498 75.6464 43.9871 75.6464 44.1519 75.6464C44.3717 75.5911 44.4816 75.5635 44.4816 75.5635C44.5914 75.5082 44.8112 75.3147 45.1408 74.9831C45.4705 74.6514 45.8001 74.3198 46.1297 73.9882C46.5143 73.6012 46.8439 73.242 47.1186 72.9103C47.4483 72.5787 47.668 72.3576 47.7779 72.247C47.8878 72.1918 48.1625 72.0812 48.602 71.9154C49.0415 71.6943 49.3162 71.5285 49.426 71.4179C49.5359 71.3074 49.7007 71.0587 49.9205 70.6717C50.1402 70.2296 50.2501 69.9256 50.2501 69.7597C50.2501 69.5386 50.2501 69.1794 50.2501 68.6819C50.2501 68.1292 50.2501 67.5488 50.2501 66.9408C50.3051 66.2775 50.3325 65.6695 50.3325 65.1168C50.3325 64.564 50.3325 64.1771 50.3325 63.956C50.3325 63.5691 50.3325 63.0716 50.3325 62.4636C50.3325 61.8556 50.3051 61.2476 50.2501 60.6396C50.2501 59.9763 50.2501 59.4236 50.2501 58.9814C50.2501 58.4839 50.2501 58.2076 50.2501 58.1523C50.2501 58.0417 50.1952 57.793 50.0853 57.4061C50.0304 56.9639 49.948 56.5217 49.8381 56.0795C49.7831 55.6373 49.7007 55.2228 49.5909 54.8359C49.481 54.3937 49.426 54.1173 49.426 54.0068V52.3486C49.3162 52.4591 49.0415 52.6249 48.602 52.846C48.2174 53.0671 47.9427 53.1777 47.7779 53.1777C47.7229 53.1777 47.5856 53.0671 47.3658 52.846C47.1461 52.5697 47.0087 52.4038 46.9538 52.3486C46.9538 52.3486 46.8989 52.3486 46.789 52.3486C46.6791 52.2933 46.5967 52.2657 46.5418 52.2657C46.4868 52.2657 46.4044 52.2933 46.2945 52.3486C46.1847 52.3486 46.1297 52.3486 46.1297 52.3486C46.0199 52.4038 45.855 52.542 45.6353 52.7631C45.4155 52.9289 45.3057 53.0671 45.3057 53.1777C45.3057 53.2329 45.2782 53.5922 45.2232 54.2555C45.2232 54.8635 45.2232 55.3333 45.2232 55.665C45.2232 55.9413 45.2232 56.4112 45.2232 57.0745C45.2782 57.7377 45.3057 58.097 45.3057 58.1523C45.3057 58.2628 45.443 58.5392 45.7177 58.9814C45.9924 59.4236 46.1297 59.6999 46.1297 59.8105C46.1297 59.921 46.0199 60.2803 45.8001 60.8883C45.5803 61.4963 45.4155 61.9662 45.3057 62.2978C45.2507 62.4636 45.1134 62.7676 44.8936 63.2098C44.6739 63.5967 44.5365 63.8455 44.4816 63.956C44.4266 64.0666 44.2893 64.2324 44.0695 64.4535C43.8498 64.6193 43.7124 64.7298 43.6575 64.7851H42.8334C42.3939 64.9509 41.7621 65.2549 40.938 65.6971C40.114 66.084 39.647 66.3328 39.5371 66.4433C39.4272 66.5539 39.2624 66.9408 39.0427 67.6041C38.8778 68.2121 38.768 68.6543 38.713 68.9306C38.713 68.9859 38.6856 69.1794 38.6306 69.511C38.6306 69.7874 38.6306 70.0085 38.6306 70.1743ZM35.4167 61.4687C34.9772 61.4687 34.7574 61.7451 34.7574 62.2978C34.7574 62.8505 34.9772 63.1269 35.4167 63.1269C35.8562 63.1269 36.076 62.8505 36.076 62.2978C36.076 61.7451 35.8562 61.4687 35.4167 61.4687Z" fill="#18203C"/>
<path d="M62.9165 81.3672C62.8066 81.3672 62.5319 81.5054 62.0924 81.7817C61.6529 82.0581 61.3782 82.1963 61.2683 82.1963C61.1584 82.1963 60.9936 82.0857 60.7739 81.8646C60.609 81.6435 60.4992 81.4777 60.4442 81.3672C60.4442 81.3119 60.4168 81.0632 60.3618 80.621C60.3618 80.1788 60.3618 79.8472 60.3618 79.6261C60.3618 79.3497 60.3618 79.018 60.3618 78.6311C60.4168 78.2442 60.4442 78.0508 60.4442 78.0508C60.4992 77.9402 60.7464 77.802 61.1859 77.6362C61.6803 77.4151 61.9825 77.2769 62.0924 77.2217C62.2023 77.1664 62.3396 77.0282 62.5044 76.8071C62.7242 76.586 62.8615 76.4478 62.9165 76.3926C62.9165 76.3373 62.9439 76.1991 62.9989 75.978C63.1088 75.7016 63.1912 75.4253 63.2461 75.1489C63.356 74.8725 63.4384 74.6238 63.4933 74.4027C63.6032 74.1263 63.6856 73.9605 63.7405 73.9052C63.7405 73.85 63.823 73.7671 63.9878 73.6565C64.1526 73.4907 64.3449 73.3249 64.5646 73.1591C64.7844 72.938 64.9767 72.7445 65.1415 72.5787C65.3063 72.4129 65.3887 72.3023 65.3887 72.247C65.3887 72.1918 65.3887 72.0536 65.3887 71.8325C65.3887 71.5561 65.3887 71.2798 65.3887 71.0034C65.3887 70.727 65.3887 70.4783 65.3887 70.2572C65.3887 69.9808 65.3887 69.815 65.3887 69.7597C65.3887 69.6492 65.4986 69.3728 65.7183 68.9306C65.993 68.4884 66.1578 68.2121 66.2128 68.1015V67.2724L65.3887 64.7851V63.956C65.4436 63.8455 65.581 63.5691 65.8007 63.1269C66.0754 62.6847 66.2128 62.4083 66.2128 62.2978C66.2128 62.0767 66.1853 61.6898 66.1304 61.1371C66.1304 60.5843 66.1029 60.004 66.048 59.3959C66.048 58.7327 66.0205 58.1523 65.9656 57.6548C65.9106 57.1021 65.8557 56.7152 65.8007 56.4941V62.2978C65.8007 61.9109 65.7458 61.1923 65.6359 60.1421C65.526 59.0919 65.3887 58.0141 65.2239 56.9086C65.114 55.7479 64.9767 54.6701 64.8118 53.6751C64.702 52.6249 64.6196 51.9064 64.5646 51.5195C64.5097 51.2984 64.3723 50.8838 64.1526 50.2758C63.9878 49.6125 63.8504 49.198 63.7405 49.0322C63.6307 49.1427 63.356 49.3085 62.9165 49.5296C62.5319 49.7507 62.2572 49.8613 62.0924 49.8613C61.9825 49.8613 61.8177 49.7507 61.5979 49.5296C61.4331 49.3085 61.3232 49.1427 61.2683 49.0322C61.2134 48.9216 61.1584 48.6452 61.1035 48.203C61.0486 47.7609 61.0211 47.4845 61.0211 47.3739H62.0924C62.1473 47.0976 62.2572 46.5448 62.422 45.7157C62.6418 44.8866 62.8066 44.3339 62.9165 44.0575L63.7405 43.2284L64.5646 41.5702C64.6745 41.4597 64.8118 41.3215 64.9767 41.1557C65.1415 40.9346 65.2788 40.7964 65.3887 40.7411C65.6634 40.6306 66.1029 40.4647 66.7072 40.2437C67.3665 40.0226 67.7511 39.912 67.8609 39.912C67.9159 39.912 68.0532 40.0502 68.273 40.3266C68.4927 40.6029 68.6301 40.7411 68.685 40.7411C68.7949 40.7964 69.0696 40.7964 69.5091 40.7411C69.9486 40.6858 70.2233 40.6858 70.3332 40.7411C70.4431 40.8517 70.6079 41.0728 70.8276 41.4044C71.1023 41.6808 71.377 42.0124 71.6517 42.3993C71.9264 42.731 72.1736 43.0626 72.3934 43.3942C72.6131 43.6706 72.7505 43.8917 72.8054 44.0575H73.6295C73.6844 44.4444 73.7394 45.163 73.7943 46.2132C73.9042 47.2081 73.9866 48.286 74.0415 49.4467C74.1514 50.5522 74.2338 51.63 74.2887 52.6802C74.3986 53.7304 74.4536 54.449 74.4536 54.8359C74.4536 55.1675 74.4536 56.0243 74.4536 57.4061C74.4536 58.7879 74.4536 60.2803 74.4536 61.8832C74.4536 63.4862 74.4536 64.9786 74.4536 66.3604C74.4536 67.7422 74.4536 68.599 74.4536 68.9306C74.4536 69.0964 74.481 69.4281 74.536 69.9256C74.5909 70.3677 74.6459 70.8652 74.7008 71.4179C74.8107 71.9707 74.9205 72.4958 75.0304 72.9932C75.1403 73.4354 75.2227 73.7394 75.2776 73.9052C75.4425 73.9052 75.7721 73.9329 76.2665 73.9882C76.8159 73.9882 77.173 73.9882 77.3378 73.9882C77.6125 73.9882 77.9971 73.9882 78.4916 73.9882C79.0409 73.9329 79.3431 73.9052 79.398 73.9052C79.453 73.9052 79.5903 73.7947 79.8101 73.5736C80.0298 73.2972 80.1672 73.1314 80.2221 73.0761L81.8703 72.247L82.6944 71.4179C82.7493 71.3074 82.8042 71.1139 82.8592 70.8376C82.969 70.5059 83.0515 70.1743 83.1064 69.8426C83.2163 69.4557 83.2987 69.1241 83.3536 68.8477C83.4635 68.5161 83.5184 68.2673 83.5184 68.1015C83.5734 67.7699 83.6283 67.2171 83.6832 66.4433C83.7931 65.6695 83.8755 64.8404 83.9305 63.956C84.0403 63.0716 84.1228 62.2425 84.1777 61.4687C84.2876 60.6949 84.3425 60.1421 84.3425 59.8105C84.3425 59.7552 84.3425 59.617 84.3425 59.3959C84.3425 59.1196 84.3425 58.8156 84.3425 58.4839C84.3974 58.1523 84.4249 57.8206 84.4249 57.489C84.4249 57.1574 84.4249 56.9086 84.4249 56.7428C84.4249 56.3559 84.3974 55.8308 84.3425 55.1675C84.3425 54.449 84.3425 54.062 84.3425 54.0068C84.3425 53.8962 84.2326 53.6199 84.0129 53.1777C83.7931 52.7355 83.6283 52.4591 83.5184 52.3486C83.4086 52.238 83.1339 52.0722 82.6944 51.8511C82.3098 51.63 82.0351 51.5195 81.8703 51.5195C81.8703 51.3536 81.8428 51.022 81.7879 50.5245C81.7879 49.9718 81.7879 49.6125 81.7879 49.4467C81.7879 49.1703 81.7879 48.7834 81.7879 48.286C81.8428 47.7332 81.8703 47.4292 81.8703 47.3739C81.8703 47.2081 81.9802 46.8212 82.1999 46.2132C82.4197 45.5499 82.5845 45.1077 82.6944 44.8866C82.7493 44.7761 82.8592 44.6103 83.024 44.3892C83.1888 44.1128 83.3536 43.8364 83.5184 43.5601C83.6832 43.2837 83.8481 43.035 84.0129 42.8139C84.1777 42.5928 84.2876 42.4546 84.3425 42.3993C84.3974 42.3441 84.7546 42.123 85.4138 41.736C86.0731 41.2939 86.5401 40.9622 86.8147 40.7411C87.0345 40.6306 87.3367 40.4647 87.7212 40.2437C88.1607 40.0226 88.408 39.912 88.4629 39.912C88.5178 39.912 88.6552 40.0502 88.8749 40.3266C89.0947 40.5477 89.232 40.6858 89.287 40.7411H90.1111C90.2759 40.7964 90.5231 40.8793 90.8527 40.9898C91.2373 41.0451 91.5944 41.128 91.924 41.2386C92.3086 41.2939 92.6382 41.3768 92.9129 41.4873C93.1876 41.5426 93.3524 41.5702 93.4074 41.5702L94.2315 42.3993H95.0555L96.7037 43.2284C96.7586 43.2284 96.896 43.2284 97.1157 43.2284C97.3355 43.1732 97.4728 43.1732 97.5278 43.2284C97.6376 43.339 97.8025 43.6153 98.0222 44.0575C98.242 44.4997 98.3518 44.7761 98.3518 44.8866L100 44.0575C100 44.2786 99.8901 44.7208 99.6704 45.3841C99.4506 45.9921 99.2858 46.379 99.1759 46.5448C99.066 46.6554 98.9287 46.7107 98.7639 46.7107C98.5991 46.7107 98.4617 46.6554 98.3518 46.5448C98.242 46.6554 98.0497 46.8765 97.775 47.2081C97.5552 47.5398 97.308 47.8714 97.0333 48.203C96.8136 48.5347 96.5663 48.8663 96.2916 49.198C96.0719 49.5296 95.9345 49.7507 95.8796 49.8613C95.7697 49.9718 95.6324 50.2482 95.4676 50.6904C95.3028 51.0773 95.1654 51.3536 95.0555 51.5195C94.9457 51.7406 94.7808 52.1827 94.5611 52.846C94.3963 53.454 94.2864 53.8409 94.2315 54.0068V54.8359C94.1765 55.0017 94.0941 55.2781 93.9842 55.665C93.9293 55.9966 93.8469 56.3559 93.737 56.7428C93.6821 57.0744 93.5997 57.3785 93.4898 57.6548C93.4348 57.9312 93.4074 58.097 93.4074 58.1523C93.3524 58.2628 93.2151 58.4287 92.9953 58.6497C92.8305 58.8156 92.6932 58.9261 92.5833 58.9814C92.5833 59.2025 92.5833 59.5618 92.5833 60.0592C92.5833 60.5567 92.5558 61.1094 92.5009 61.7174C92.5009 62.2702 92.5009 62.7953 92.5009 63.2927C92.5009 63.7902 92.5009 64.1495 92.5009 64.3706C92.5009 64.7022 92.5009 65.172 92.5009 65.78C92.5009 66.388 92.5009 66.9961 92.5009 67.6041C92.5558 68.1568 92.5833 68.6543 92.5833 69.0964C92.5833 69.4834 92.5833 69.7045 92.5833 69.7597C92.5833 69.8703 92.6932 70.2572 92.9129 70.9205C93.1327 71.5285 93.2975 71.9707 93.4074 72.247L94.2315 73.0761L95.0555 74.7344C95.1654 74.8449 95.3028 75.0107 95.4676 75.2318C95.6324 75.3976 95.7697 75.5082 95.8796 75.5635H96.7037C96.8136 75.6187 96.9509 75.7569 97.1157 75.978C97.3355 76.1438 97.4728 76.282 97.5278 76.3926C97.6376 76.5584 97.775 76.9729 97.9398 77.6362C98.1596 78.2442 98.2969 78.6588 98.3518 78.8799C98.3518 78.9351 98.3518 79.0733 98.3518 79.2944C98.4068 79.5155 98.4343 79.6813 98.4343 79.7919C98.4343 79.9024 98.4068 80.0682 98.3518 80.2893C98.3518 80.4552 98.3518 80.5381 98.3518 80.5381C98.2969 80.6486 98.0222 80.7868 97.5278 80.9526C97.0883 81.1184 96.8136 81.2566 96.7037 81.3672C96.5938 81.4777 96.429 81.7541 96.2092 82.1963C96.0444 82.6385 95.9345 82.9148 95.8796 83.0254C95.7697 83.1359 95.495 83.4123 95.0555 83.8545C94.671 84.2967 94.3963 84.573 94.2315 84.6836C93.9568 84.96 93.4898 85.3192 92.8305 85.7614C92.2262 86.1483 91.8691 86.3418 91.7592 86.3418C91.6493 86.3418 91.3746 86.2312 90.9351 86.0102C90.5506 85.7891 90.2759 85.6232 90.1111 85.5127C89.9462 85.3469 89.6716 85.0705 89.287 84.6836C88.9024 84.2967 88.4904 83.8821 88.0509 83.4399C87.6114 82.9977 87.1993 82.5832 86.8147 82.1963C86.4302 81.8094 86.1555 81.533 85.9907 81.3672C85.9357 81.4224 85.7984 81.4501 85.5786 81.4501C85.3589 81.4501 85.2215 81.4224 85.1666 81.3672C85.1116 81.3119 85.0018 81.2014 84.837 81.0355C84.7271 80.8697 84.5623 80.7039 84.3425 80.5381C84.1777 80.317 84.0129 80.1235 83.8481 79.9577C83.6832 79.7919 83.5734 79.709 83.5184 79.709C83.5184 79.709 83.4086 79.709 83.1888 79.709C83.024 79.6537 82.8866 79.6261 82.7768 79.6261C82.6669 79.6261 82.5021 79.6537 82.2823 79.709C82.0626 79.709 81.9252 79.709 81.8703 79.709C81.7604 79.7642 81.4857 79.9024 81.0462 80.1235C80.6067 80.2893 80.332 80.4275 80.2221 80.5381L78.574 82.1963C78.519 82.3068 78.3817 82.5832 78.1619 83.0254C77.9971 83.4676 77.8598 83.7439 77.7499 83.8545C77.6949 83.9098 77.5576 83.9098 77.3378 83.8545C77.1181 83.7992 76.9807 83.7992 76.9258 83.8545C76.8159 84.0203 76.6511 84.4349 76.4314 85.0981C76.2116 85.7061 76.1017 86.1207 76.1017 86.3418C76.1017 86.2312 75.9918 86.0654 75.7721 85.8443C75.5523 85.6232 75.3875 85.5127 75.2776 85.5127C75.2227 85.5127 75.0579 85.568 74.7832 85.6785C74.5634 85.7338 74.3162 85.8167 74.0415 85.9272C73.7668 85.9825 73.4921 86.0654 73.2174 86.176C72.9977 86.2865 72.8603 86.3418 72.8054 86.3418C72.7505 86.3418 72.6131 86.3694 72.3934 86.4247C72.1736 86.4247 72.0088 86.4247 71.8989 86.4247C71.789 86.4247 71.6242 86.4247 71.4045 86.4247C71.2397 86.3694 71.1573 86.3418 71.1573 86.3418C71.1023 86.3418 70.965 86.2312 70.7452 86.0102C70.5255 85.7338 70.3881 85.568 70.3332 85.5127H69.5091L68.685 84.6836C68.6301 84.6836 68.4927 84.7112 68.273 84.7665C68.0532 84.7665 67.9159 84.7389 67.8609 84.6836C67.7511 84.573 67.6137 84.2967 67.4489 83.8545C67.2841 83.4123 67.1467 83.1359 67.0369 83.0254C66.927 82.9148 66.6523 82.7767 66.2128 82.6108C65.8282 82.445 65.5535 82.3068 65.3887 82.1963H64.5646C64.4547 82.141 64.1801 82.0028 63.7405 81.7817C63.301 81.5054 63.0263 81.3672 62.9165 81.3672ZM85.1666 61.4687C85.0567 61.2476 84.9468 61.524 84.837 62.2978C84.782 63.0164 84.7546 63.8455 84.7546 64.7851C84.7546 65.7248 84.782 66.5815 84.837 67.3553C84.9468 68.1292 85.0567 68.3779 85.1666 68.1015C85.2765 67.8804 85.3589 67.4659 85.4138 66.8579C85.4688 66.1946 85.4962 65.5037 85.4962 64.7851C85.4962 64.0666 85.4688 63.4033 85.4138 62.7953C85.3589 62.1873 85.2765 61.7451 85.1666 61.4687ZM66.2128 54.0068C65.9381 53.8962 65.8007 54.0344 65.8007 54.4213C65.8007 54.8082 65.9381 54.9464 66.2128 54.8359C66.4875 54.7253 66.6248 54.5871 66.6248 54.4213C66.6248 54.2555 66.4875 54.1173 66.2128 54.0068ZM80.2221 47.3739C80.4968 47.4845 80.6342 47.7609 80.6342 48.203C80.6342 48.6452 80.4968 48.9216 80.2221 49.0322C80.1122 49.0874 80.0024 49.0321 79.8925 48.8663C79.8375 48.6452 79.8101 48.4241 79.8101 48.203C79.8101 47.982 79.8375 47.7885 79.8925 47.6227C80.0024 47.4016 80.1122 47.3187 80.2221 47.3739Z" fill="#18203C"/>
</g>
</svg>
